<?xml version="1.0" standalone="no"?>
<!DOCTYPE svg PUBLIC "-//W3C//DTD SVG 20010904//EN"
 "http://www.w3.org/TR/2001/REC-SVG-20010904/DTD/svg10.dtd">
<svg version="1.0" xmlns="http://www.w3.org/2000/svg"
 width="640.000000pt" height="390.000000pt" viewBox="0 0 640.000000 390.000000"
 preserveAspectRatio="xMidYMid meet">

<g transform="translate(0.000000,390.000000) scale(0.100000,-0.100000)"
fill="#000000" stroke="none">
<path d="M3235 3670 c-3 -5 1 -10 10 -10 9 0 13 5 10 10 -3 6 -8 10 -10 10 -2
0 -7 -4 -10 -10z"/>
<path d="M2958 3663 c7 -3 16 -2 19 1 4 3 -2 6 -13 5 -11 0 -14 -3 -6 -6z"/>
<path d="M3096 3653 c-3 -4 -6 -15 -6 -25 0 -24 -17 -23 -30 2 -13 25 -30 26
-30 2 0 -19 -24 -23 -47 -9 -6 4 -13 -2 -16 -15 -6 -21 -7 -21 -25 -5 -10 9
-24 17 -30 17 -7 0 -12 7 -12 16 0 9 -6 14 -12 11 -7 -2 -12 -12 -10 -22 3
-16 2 -16 -20 -1 -12 9 -27 16 -33 16 -7 0 -7 -3 0 -8 15 -11 47 -63 42 -68
-3 -3 -13 6 -23 19 -22 27 -74 63 -74 51 0 -5 19 -25 43 -45 23 -20 39 -40 35
-44 -4 -5 -15 -2 -24 6 -16 13 -16 12 -5 -10 7 -13 10 -36 7 -52 -3 -16 -1
-29 4 -29 6 0 10 6 10 13 0 8 4 7 10 -3 8 -13 10 -13 10 2 0 11 5 15 15 12 10
-4 15 0 15 11 0 14 3 15 15 5 12 -10 19 -7 38 14 13 14 32 26 41 26 9 0 16 5
16 11 0 8 5 8 15 -1 18 -15 19 -30 3 -30 -7 0 -29 -14 -48 -30 -38 -32 -29
-38 23 -16 18 7 55 16 82 20 28 5 56 13 63 18 19 16 25 3 10 -22 -12 -19 -10
-24 22 -51 19 -16 44 -28 55 -28 11 1 35 1 54 0 29 -1 32 -3 21 -16 -10 -12
-10 -15 4 -15 16 0 21 -12 9 -23 -3 -4 -13 -1 -21 6 -13 10 -14 9 -3 -11 16
-30 35 -23 39 14 5 42 18 50 25 14 5 -21 1 -39 -9 -56 -15 -22 -15 -24 0 -18
9 3 16 10 16 15 0 5 5 9 11 9 6 0 9 -7 5 -15 -7 -19 14 -19 40 0 16 13 17 16
4 25 -13 8 -13 10 2 10 9 0 25 3 35 7 13 5 10 -3 -12 -29 -16 -20 -37 -37 -44
-37 -11 -1 -12 -4 -3 -13 8 -8 15 -8 25 0 8 7 18 8 22 4 5 -4 5 -2 1 5 -3 6
-2 14 4 18 6 3 13 -1 16 -9 3 -9 14 -16 23 -16 10 0 21 -3 25 -7 12 -12 97
-12 90 -1 -4 6 0 14 7 19 11 7 8 14 -16 34 -16 13 -36 24 -42 25 -7 0 -13 4
-13 9 0 5 6 12 13 15 6 3 0 4 -15 1 -33 -6 -37 9 -8 27 12 8 20 24 20 41 0 24
-3 27 -25 21 -32 -8 -85 13 -85 33 0 12 3 13 15 3 17 -14 92 -5 110 14 9 9 1
12 -34 13 -68 2 -116 -14 -145 -48 -21 -25 -27 -28 -32 -15 -3 9 -10 16 -15
16 -4 0 -6 -7 -2 -16 6 -17 -12 -34 -39 -34 -11 0 -15 5 -12 15 4 9 0 15 -10
15 -23 0 -20 17 4 23 11 3 20 12 20 20 0 9 15 17 41 21 23 4 44 5 46 2 5 -4
43 30 43 39 0 2 -7 2 -16 -2 -9 -3 -19 -2 -23 3 -3 6 -24 15 -46 22 -32 10
-42 9 -50 -2 -10 -13 -16 -16 -34 -16 -5 0 -11 -9 -14 -20 -3 -11 -12 -20 -21
-20 -9 0 -16 -7 -16 -15 0 -8 -4 -15 -10 -15 -5 0 -10 5 -10 10 0 6 -9 19 -20
30 -11 11 -20 29 -20 40 0 41 -36 90 -54 73z m34 -80 c0 -32 -5 -28 -14 10 -4
19 -3 26 4 22 5 -3 10 -18 10 -32z m276 -150 c-11 -11 -17 4 -9 23 7 18 8 18
11 1 2 -10 1 -21 -2 -24z m70 -8 c-8 -8 -18 -15 -22 -15 -3 0 -1 7 6 15 7 8
17 15 22 15 5 0 3 -7 -6 -15z m38 -10 c-7 -16 -24 -21 -24 -6 0 8 7 13 27 20
1 1 0 -6 -3 -14z"/>
<path d="M3150 3629 c7 -11 14 -18 17 -15 8 8 -5 36 -17 36 -7 0 -7 -6 0 -21z"/>
<path d="M3325 3630 c25 -28 95 -29 88 -2 -4 15 -15 19 -56 21 -50 1 -50 1
-32 -19z"/>
<path d="M3170 3584 c0 -6 7 -19 15 -30 8 -10 14 -14 14 -9 0 6 -6 19 -14 29
-8 11 -15 15 -15 10z"/>
<path d="M2548 3523 c31 -15 50 -34 79 -79 12 -19 12 -19 12 0 1 27 -72 96
-100 96 -22 0 -21 -2 9 -17z"/>
<path d="M2440 3520 c-15 -4 -20 -9 -13 -13 6 -4 18 -4 26 -1 9 3 24 1 34 -5
15 -9 13 -10 -12 -6 l-30 6 24 -18 c14 -10 47 -39 74 -65 52 -52 77 -60 77
-27 0 25 -37 89 -59 104 -27 17 -95 32 -121 25z"/>
<path d="M2696 3495 c4 -16 10 -34 14 -40 4 -5 10 -19 13 -30 4 -15 5 -14 6 7
0 15 -8 42 -19 60 l-21 33 7 -30z"/>
<path d="M2806 3507 c3 -10 9 -15 12 -12 3 3 0 11 -7 18 -10 9 -11 8 -5 -6z"/>
<path d="M2650 3493 c5 -10 14 -30 20 -45 9 -27 30 -39 30 -18 0 6 -4 10 -10
10 -5 0 -10 8 -10 18 -1 18 -22 52 -34 52 -3 0 -2 -8 4 -17z"/>
<path d="M2770 3502 c0 -18 12 -42 21 -42 14 0 11 20 -6 36 -8 9 -15 11 -15 6z"/>
<path d="M2385 3480 c4 -6 -8 -10 -27 -11 l-33 -1 29 -8 c17 -6 36 -5 45 0 9
5 12 10 6 10 -5 1 -1 5 10 10 18 8 17 9 -8 9 -16 1 -26 -3 -22 -9z"/>
<path d="M2904 3450 c0 -11 4 -20 8 -20 4 0 8 9 8 20 0 11 -4 20 -8 20 -4 0
-8 -9 -8 -20z"/>
<path d="M2480 3448 c0 -13 -8 -15 -42 -11 -29 4 -39 3 -34 -5 4 -7 13 -12 20
-12 7 0 30 -11 50 -25 43 -29 54 -32 35 -8 -12 14 -12 16 1 11 8 -3 15 -13 16
-24 0 -10 4 -27 8 -37 5 -10 6 -21 2 -24 -3 -4 -6 1 -6 10 0 15 -66 55 -75 45
-2 -2 9 -19 25 -37 32 -34 40 -52 15 -31 -8 6 -20 8 -26 4 -7 -4 -9 -3 -5 4 7
12 -3 20 -44 32 -41 12 -38 -4 3 -18 17 -7 22 -10 10 -8 -12 2 -37 0 -55 -4
-26 -6 -28 -8 -10 -10 12 -1 27 -4 32 -5 6 -1 19 -3 30 -4 11 0 20 -8 20 -16
0 -17 -25 -20 -35 -5 -3 6 -24 10 -46 10 -47 0 -53 -19 -6 -21 l32 -2 -30 -4
c-16 -2 -36 -12 -42 -21 -8 -9 -13 -11 -13 -4 0 7 -5 12 -12 12 -6 0 -3 -9 7
-20 12 -14 31 -20 58 -20 38 0 40 1 21 15 -17 13 -17 14 -2 15 20 0 31 -16 33
-47 1 -26 -5 -29 -24 -10 -11 10 -13 8 -8 -11 6 -25 10 -25 -63 -5 -22 6 -23
4 -12 -9 10 -13 10 -17 -4 -22 -9 -3 -20 -4 -25 -1 -5 4 -6 -1 -3 -10 4 -9 19
-22 35 -30 51 -27 79 -60 79 -94 0 -18 -4 -30 -9 -26 -18 11 2 -70 21 -89 23
-22 16 -35 -9 -15 -15 13 -16 12 -9 -6 5 -11 11 -28 13 -37 3 -10 9 -18 14
-18 5 0 9 -9 9 -20 0 -13 -5 -18 -15 -14 -11 5 -13 2 -9 -10 3 -9 1 -16 -5
-16 -28 0 16 -109 44 -110 10 0 45 -51 45 -65 0 -3 -9 -4 -19 0 -23 7 -41 -32
-21 -45 8 -5 11 -23 8 -51 -4 -31 0 -53 13 -74 10 -17 21 -57 25 -90 9 -77 9
-76 0 -108 -5 -20 -2 -29 8 -33 17 -6 86 -69 86 -78 0 -3 -12 -1 -27 5 -27 10
-27 10 -8 -10 14 -16 15 -21 4 -22 -8 0 1 -7 20 -16 23 -10 31 -17 22 -22 -9
-6 -8 -11 4 -21 8 -7 15 -17 15 -22 0 -5 10 -22 21 -37 12 -16 18 -34 15 -40
-4 -6 9 -4 29 5 20 8 63 16 95 17 33 1 60 3 60 5 0 1 -8 14 -17 29 -14 21 -15
25 -3 22 8 -3 22 -19 30 -35 11 -24 25 -33 60 -41 25 -6 47 -9 49 -7 8 8 -45
43 -66 44 -15 0 -24 10 -32 32 -13 38 -7 47 17 25 25 -23 32 -21 32 8 0 23 41
75 60 75 6 0 10 5 10 11 0 7 23 34 50 61 28 27 50 58 50 69 0 10 4 19 9 19 11
0 41 62 41 84 0 28 -76 54 -142 48 -39 -3 -58 -1 -58 7 0 6 10 11 23 11 20 1
20 2 4 11 -18 10 -39 7 -92 -16 -16 -7 -43 -17 -60 -22 -20 -6 -36 -22 -50
-49 -11 -21 -23 -40 -27 -42 -15 -7 -8 -49 10 -65 10 -10 28 -17 40 -17 17 0
22 -6 22 -28 0 -16 9 -39 20 -52 24 -27 26 -42 5 -34 -8 4 -15 12 -15 19 0 7
-6 18 -14 24 -12 10 -15 8 -18 -11 l-4 -23 -11 25 c-7 14 -14 38 -18 54 -3 16
-23 46 -45 65 -21 20 -52 59 -70 86 -25 39 -30 44 -26 22 4 -15 20 -49 36 -76
42 -68 37 -74 -9 -10 -57 81 -72 116 -82 190 -6 53 -5 76 6 101 16 36 39 68
48 68 3 0 25 18 49 40 50 46 61 49 52 15 -7 -27 10 -35 20 -10 3 8 8 43 12 78
5 55 3 65 -16 90 -12 16 -28 26 -35 23 -19 -7 -55 22 -55 46 0 17 -4 19 -27
14 -91 -20 -90 -21 -86 11 3 16 -3 56 -13 89 -23 78 -22 127 6 199 25 68 36
85 47 80 18 -6 17 68 -1 103 -20 39 -66 80 -66 60z m124 -652 c37 -1 62 -8 75
-20 26 -24 20 -32 -26 -41 -20 -4 -54 -15 -74 -26 -40 -20 -56 -13 -44 19 3 9
3 14 0 10 -7 -7 -55 35 -55 49 0 16 43 32 57 21 7 -5 37 -11 67 -12z m-102
-145 c6 -9 2 -7 -10 4 -12 11 -24 36 -27 55 l-5 35 15 -39 c8 -21 20 -46 27
-55z m99 -4 c-13 -13 -26 -3 -16 12 3 6 11 8 17 5 6 -4 6 -10 -1 -17z m-51
-53 c0 -8 -4 -12 -10 -9 -5 3 -10 10 -10 16 0 5 5 9 10 9 6 0 10 -7 10 -16z
m450 -289 c0 -8 -8 -15 -18 -15 -11 0 -32 -6 -48 -14 -16 -8 -46 -18 -66 -21
-49 -9 -52 14 -5 43 40 26 137 30 137 7z m76 -34 c-3 -5 -16 -11 -28 -14 -22
-6 -22 -5 -4 8 22 17 40 20 32 6z m-25 -55 c5 3 9 1 9 -4 0 -8 -83 -72 -94
-72 -17 0 -3 22 19 30 18 7 23 14 18 26 -5 13 -2 16 10 11 9 -3 16 -3 16 1 -3
16 3 26 8 14 2 -6 9 -10 14 -6z m-120 -26 c-24 -21 -43 -25 -55 -13 -4 4 8 13
26 19 48 18 56 16 29 -6z m-178 -132 c21 -33 36 -62 34 -65 -4 -3 -29 34 -84
124 -16 27 -16 45 0 19 7 -10 29 -45 50 -78z"/>
<path d="M2776 3435 c-3 -8 -1 -15 4 -15 6 0 10 7 10 15 0 8 -2 15 -4 15 -2 0
-6 -7 -10 -15z"/>
<path d="M3113 3396 c8 -16 17 -22 31 -18 18 5 18 6 -3 24 -31 25 -41 23 -28
-6z"/>
<path d="M2641 3348 c-1 -21 4 -38 9 -38 12 0 12 27 0 55 -7 16 -9 13 -9 -17z"/>
<path d="M2677 3340 c-3 -11 -1 -20 4 -20 5 0 9 9 9 20 0 11 -2 20 -4 20 -2 0
-6 -9 -9 -20z"/>
<path d="M2610 3330 c0 -19 3 -21 12 -12 9 9 9 15 0 24 -9 9 -12 7 -12 -12z"/>
<path d="M3230 3320 c0 -5 7 -10 16 -10 8 0 12 5 9 10 -3 6 -10 10 -16 10 -5
0 -9 -4 -9 -10z"/>
<path d="M3478 3239 c-15 -8 -16 -13 -6 -29 9 -13 16 -16 24 -9 7 5 36 8 65 5
45 -4 58 -11 97 -48 44 -43 45 -43 26 -9 -26 46 -72 83 -95 76 -10 -3 -32 1
-48 9 -35 18 -40 19 -63 5z m42 -9 c12 -8 11 -10 -7 -10 -13 0 -23 5 -23 10 0
13 11 13 30 0z"/>
<path d="M3440 3190 c0 -5 5 -10 10 -10 6 0 10 5 10 10 0 6 -4 10 -10 10 -5 0
-10 -4 -10 -10z"/>
<path d="M2210 3181 c0 -6 5 -13 10 -16 6 -3 10 1 10 9 0 9 -4 16 -10 16 -5 0
-10 -4 -10 -9z"/>
<path d="M2325 3180 c3 -5 16 -10 28 -9 21 0 21 1 2 9 -28 12 -37 12 -30 0z"/>
<path d="M3473 3177 c-27 -12 -30 -27 -5 -27 14 0 15 -2 2 -10 -21 -13 -9 -19
44 -21 48 -2 93 -25 68 -36 -10 -4 -9 -8 5 -19 22 -16 1 -19 -28 -4 -32 18
-22 -7 11 -27 17 -9 30 -21 30 -26 0 -16 -54 3 -73 25 -10 11 -20 18 -23 15
-9 -9 26 -101 49 -125 l21 -22 27 26 c15 15 38 32 50 38 13 6 23 22 25 38 3
28 2 28 -26 13 -42 -22 -47 -19 -19 11 13 14 24 39 25 55 2 40 -43 69 -105 69
-33 0 -42 3 -38 14 8 19 -13 26 -40 13z"/>
<path d="M2190 3175 c0 -5 5 -17 10 -25 5 -8 10 -10 10 -5 0 6 -5 17 -10 25
-5 8 -10 11 -10 5z"/>
<path d="M2246 3112 c-3 -6 -1 -14 5 -17 15 -10 25 3 12 16 -7 7 -13 7 -17 1z"/>
<path d="M3056 3105 c-11 -8 -30 -15 -43 -15 -23 0 -63 -18 -74 -33 -3 -5 -9
-8 -13 -8 -3 1 -28 -11 -56 -27 -37 -20 -50 -33 -50 -49 0 -28 14 -29 39 -4
10 10 30 22 43 26 12 4 29 12 36 18 15 12 136 55 175 62 15 3 35 1 45 -3 27
-14 82 -22 82 -13 0 5 -13 12 -30 16 -16 4 -30 10 -30 15 0 7 -76 30 -97 30
-4 0 -17 -7 -27 -15z"/>
<path d="M2340 3005 c28 -30 40 -32 40 -6 0 11 -9 21 -22 25 -39 10 -42 7 -18
-19z"/>
<path d="M3750 2979 c0 -4 -8 -10 -17 -12 -22 -5 43 -6 75 -1 38 7 24 23 -18
21 -22 -1 -40 -4 -40 -8z"/>
<path d="M3960 2979 c0 -7 -11 -9 -30 -6 -32 7 -62 -6 -100 -41 l-25 -23 32 5
c18 4 44 11 58 16 36 14 48 13 42 -3 -6 -15 39 -17 62 -3 6 4 19 2 27 -5 14
-12 14 -14 -2 -26 -16 -11 -16 -13 -2 -13 38 0 30 33 -21 88 -24 24 -41 29
-41 11z"/>
<path d="M3143 2948 c26 -11 46 -26 44 -32 -5 -15 -89 -36 -102 -25 -15 11
-126 -36 -147 -62 -27 -32 -22 -41 18 -33 27 5 35 4 30 -5 -5 -7 0 -11 13 -11
11 0 23 5 26 10 4 6 12 10 18 9 7 -1 27 -1 46 0 25 1 32 5 27 16 -3 8 -1 15 4
15 6 0 10 -4 10 -10 0 -5 7 -10 15 -10 18 0 20 16 3 23 -9 4 -8 6 2 6 9 1 21
-4 27 -10 6 -6 17 -8 24 -3 9 5 8 9 -7 15 -18 8 -18 8 2 14 12 4 27 18 33 31
14 32 14 35 -4 28 -8 -4 -15 -1 -15 5 0 17 -61 51 -90 51 -20 -1 -15 -5 23
-22z m-75 -126 c2 -7 -6 -12 -17 -12 -21 0 -27 11 -14 24 9 9 26 2 31 -12z"/>
<path d="M4055 2880 c-3 -5 -1 -10 4 -10 6 0 11 5 11 10 0 6 -2 10 -4 10 -3 0
-8 -4 -11 -10z"/>
<path d="M3590 2856 c0 -9 5 -16 10 -16 6 0 10 4 10 9 0 6 -4 13 -10 16 -5 3
-10 -1 -10 -9z"/>
<path d="M2360 2785 c0 -5 5 -17 10 -25 5 -8 10 -10 10 -5 0 6 -5 17 -10 25
-5 8 -10 11 -10 5z"/>
<path d="M3605 2780 c-3 -5 -1 -10 4 -10 6 0 11 5 11 10 0 6 -2 10 -4 10 -3 0
-8 -4 -11 -10z"/>
<path d="M3731 2750 c-20 -33 -17 -82 4 -74 8 3 17 -8 24 -28 l11 -33 -20 24
c-11 13 -20 18 -20 12 0 -6 14 -25 31 -43 l31 -33 -6 38 c-6 48 0 47 20 -4 13
-31 21 -39 35 -36 10 3 20 0 21 -5 3 -7 13 -6 28 2 15 8 20 15 12 18 -6 2 -12
10 -12 18 0 8 -7 14 -16 14 -10 0 -14 6 -10 15 3 8 -2 19 -12 24 -10 6 -12 11
-4 11 14 0 17 20 2 20 -5 0 -14 -15 -19 -32 l-9 -33 -1 38 c-1 37 -21 54 -21
17 0 -11 -4 -20 -10 -20 -5 0 -10 7 -10 15 0 8 -7 15 -15 15 -25 0 -36 33 -20
63 19 37 9 34 -14 -3z m116 -132 c-3 -8 -6 -5 -6 6 -1 11 2 17 5 13 3 -3 4
-12 1 -19z"/>
<path d="M3520 2754 c0 -8 5 -12 10 -9 6 3 10 10 10 16 0 5 -4 9 -10 9 -5 0
-10 -7 -10 -16z"/>
<path d="M3530 2725 c-5 -27 2 -104 12 -135 6 -19 23 -51 37 -71 15 -20 35
-53 44 -75 21 -46 54 -72 99 -80 l33 -6 -25 20 c-13 11 -27 19 -30 17 -4 -2
-13 4 -21 13 -31 36 -29 42 6 18 20 -14 45 -28 56 -31 10 -4 19 -13 19 -21 0
-8 4 -13 9 -9 18 10 29 -29 40 -146 15 -159 14 -248 -5 -316 -9 -32 -18 -69
-21 -83 -3 -14 -10 -30 -15 -37 -5 -6 -11 -31 -13 -54 -4 -40 -26 -71 -34 -48
-2 6 2 15 9 19 9 5 9 9 1 14 -6 4 -15 5 -20 1 -5 -3 -13 0 -16 5 -5 8 -13 6
-26 -6 -14 -12 -16 -21 -8 -35 7 -14 6 -17 -5 -13 -16 6 -58 -25 -50 -38 3 -4
-2 -8 -11 -8 -13 0 -16 -6 -11 -24 4 -15 0 -28 -9 -36 -13 -11 -21 -8 -46 18
-24 24 -37 30 -55 26 -14 -4 -24 -2 -24 4 0 6 -9 13 -20 16 -57 16 -61 14 -17
-9 32 -17 47 -32 47 -45 0 -25 8 -25 33 -2 11 9 17 12 14 5 -4 -6 14 -25 46
-46 91 -61 152 -127 117 -127 -6 0 -6 -9 0 -25 7 -19 6 -25 -4 -25 -16 0 -96
84 -96 101 0 7 -7 19 -15 28 -9 9 -27 29 -40 46 -32 38 -43 26 -17 -20 17 -28
18 -35 7 -35 -18 0 -20 -17 -2 -23 9 -3 9 -8 -2 -21 -10 -11 -11 -20 -4 -24
13 -9 23 -52 12 -52 -5 0 -12 7 -15 15 -3 8 -22 32 -43 53 -96 103 -111 121
-111 130 0 6 -8 17 -18 24 -10 7 -27 28 -37 46 -22 36 -30 39 -39 16 -8 -21
-8 -20 7 -36 21 -23 47 -75 47 -95 0 -10 9 -31 20 -48 12 -16 27 -45 35 -62 8
-18 19 -33 24 -33 16 0 81 -69 81 -85 0 -8 5 -15 10 -15 6 0 10 -9 10 -19 0
-10 7 -21 15 -25 8 -3 15 -16 15 -28 0 -13 12 -41 25 -63 l25 -40 0 33 c0 17
5 32 10 32 6 0 10 -11 10 -25 0 -16 6 -25 15 -25 8 0 15 9 15 21 0 11 4 18 9
14 5 -3 12 3 14 12 3 10 5 1 6 -19 1 -54 19 -47 23 9 3 47 28 75 28 31 0 -17
3 -19 9 -9 13 21 31 3 31 -32 0 -29 1 -30 15 -11 17 23 20 91 3 96 -7 3 -8 10
-2 21 8 15 12 12 23 -18 15 -42 33 -47 21 -6 -4 16 -6 32 -3 35 6 5 -35 95
-48 106 -3 3 -8 13 -12 22 -7 20 18 29 65 25 20 -1 28 -8 28 -21 0 -15 3 -16
15 -6 13 11 14 10 10 -2 -7 -18 20 -73 30 -59 3 6 3 16 0 21 -3 6 -1 10 4 10
6 0 11 7 11 16 0 12 7 15 29 12 30 -4 36 2 56 57 7 19 8 18 15 -5 l6 -25 8 23
c4 12 14 22 22 22 8 0 14 6 14 14 0 21 27 40 33 24 4 -10 6 -10 6 0 1 6 10 12
21 12 11 0 20 5 20 11 0 6 6 9 12 7 7 -3 26 8 42 24 21 21 34 27 50 22 18 -6
19 -5 7 10 -11 13 -11 16 0 16 10 0 9 4 -3 16 -18 19 -102 31 -111 16 -10 -15
-86 3 -102 24 -12 17 -17 17 -45 7 -26 -10 -31 -10 -26 2 2 7 0 16 -7 18 -8 3
-6 11 7 26 11 11 14 21 9 21 -6 0 -16 -7 -23 -15 -17 -20 -27 -19 -35 5 -9 28
3 44 21 29 8 -6 18 -9 21 -5 9 9 -17 26 -39 26 -10 0 -18 -4 -18 -10 0 -5 -4
-10 -10 -10 -5 0 -10 7 -10 15 0 9 21 20 58 30 81 23 120 45 153 86 16 20 29
40 29 44 0 4 9 19 19 34 11 15 23 40 27 56 7 29 7 29 -26 -8 -34 -39 -87 -73
-98 -63 -3 4 0 12 6 18 20 20 14 28 -23 28 -42 0 -45 14 -6 34 29 15 49 46 30
46 -5 0 -2 11 6 24 14 22 14 24 -2 30 -15 6 -15 8 -3 16 13 8 11 12 -7 25 -13
9 -23 23 -23 31 0 8 -6 14 -12 15 -7 0 -4 4 7 9 11 5 35 6 53 3 20 -3 32 -1
32 6 0 6 -9 11 -19 11 -38 0 -32 20 8 26 22 4 49 13 58 21 16 13 16 13 -4 4
-29 -14 -84 -15 -63 -1 12 8 12 10 -5 10 -34 0 -95 20 -95 31 0 5 15 16 33 24
17 8 26 14 20 15 -24 0 -13 15 32 43 46 29 57 47 30 47 -18 0 -20 26 -2 34 6
3 1 3 -13 -1 -22 -5 -23 -4 -11 11 12 14 11 16 -5 16 -14 0 -15 3 -6 12 7 7
12 20 12 31 0 14 -5 17 -21 12 -16 -5 -20 -4 -15 6 4 8 0 5 -8 -5 -9 -11 -19
-16 -23 -13 -4 4 -1 13 5 19 27 27 9 25 -32 -3 -43 -31 -126 -55 -136 -40 -3
4 -20 11 -38 14 -32 7 -96 47 -74 47 6 0 14 -4 17 -10 3 -5 11 -10 16 -10 6 0
-1 14 -15 31 -24 29 -31 50 -28 91 1 9 -5 22 -13 28 -13 10 -15 8 -16 -16 -1
-16 -1 -36 0 -44 2 -13 1 -13 -9 0 -9 12 -10 6 -6 -25 5 -37 4 -38 -9 -21 -8
11 -15 31 -15 44 0 21 -2 22 -15 12 -13 -10 -15 -9 -15 11 0 17 -3 20 -9 11
-4 -8 -12 -14 -17 -15 -5 -1 -9 -14 -10 -29 -1 -51 -12 -40 -19 19 -7 61 -12
85 -15 68z m155 -105 c3 -5 1 -10 -4 -10 -6 0 -11 5 -11 10 0 6 2 10 4 10 3 0
8 -4 11 -10z m65 -151 c10 -9 24 -19 31 -21 8 -3 10 -9 6 -14 -5 -5 -22 -1
-38 9 -17 9 -37 17 -45 17 -8 0 -14 4 -14 10 0 5 8 6 17 3 12 -5 11 -1 -5 15
-12 12 -22 27 -22 34 0 10 18 -3 70 -53z m5 41 c3 -6 -1 -7 -9 -4 -18 7 -21
14 -7 14 6 0 13 -4 16 -10z m52 4 c-3 -3 -12 -4 -19 -1 -8 3 -5 6 6 6 11 1 17
-2 13 -5z m-111 -831 c-7 -7 -26 7 -26 19 0 6 6 6 15 -2 9 -7 13 -15 11 -17z
m84 -13 c0 -5 -4 -10 -10 -10 -5 0 -10 5 -10 10 0 6 5 10 10 10 6 0 10 -4 10
-10z m4 -66 c4 -21 3 -41 -4 -49 -6 -7 -7 -15 -3 -17 4 -1 16 -18 27 -36 23
-43 9 -63 -27 -39 -15 10 -29 12 -38 6 -22 -14 -42 -11 -35 6 3 9 0 15 -9 15
-20 0 -30 21 -14 31 21 13 29 11 22 -8 -4 -11 -3 -14 5 -9 7 4 12 14 12 22 0
8 12 25 27 38 18 15 23 25 15 30 -7 4 -12 1 -12 -9 0 -26 -17 -8 -22 23 -3 24
-1 28 14 24 10 -2 18 1 18 7 0 25 18 -1 24 -35z m232 -1 c10 -21 19 -42 19
-48 0 -5 3 -12 6 -15 16 -13 -4 -66 -29 -78 -36 -17 -45 -15 -60 8 -14 23 -13
24 22 10 17 -6 26 -6 26 0 0 6 -4 10 -10 10 -5 0 -10 5 -10 11 0 6 9 9 20 6
11 -3 23 -1 26 4 3 5 -2 9 -10 9 -9 0 -16 7 -16 15 0 8 5 15 11 15 5 0 7 5 4
10 -4 6 -11 8 -16 5 -13 -9 -11 9 4 24 10 11 8 12 -9 7 -22 -7 -40 16 -28 35
11 19 32 7 50 -28z m194 -23 c0 -5 -6 -10 -14 -10 -8 0 -18 5 -21 10 -3 6 3
10 14 10 12 0 21 -4 21 -10z m-590 -11 c0 -6 7 -9 15 -5 9 3 19 -3 26 -16 9
-18 8 -24 -6 -34 -21 -15 -35 -10 -35 13 0 9 -6 13 -15 9 -15 -5 -22 24 -8 37
10 11 23 8 23 -4z m256 -103 c21 -16 19 -20 -13 -30 -20 -6 -23 -4 -23 18 0
30 8 32 36 12z m44 4 c0 -5 7 -10 16 -10 9 0 14 -5 12 -11 -2 -6 -7 -10 -11
-10 -4 1 -14 1 -22 1 -8 0 -15 9 -15 20 0 11 5 20 10 20 6 0 10 -4 10 -10z
m-520 -84 c0 -2 -7 -7 -16 -10 -8 -3 -12 -2 -9 4 6 10 25 14 25 6z m150 -226
c0 -5 -4 -10 -10 -10 -5 0 -10 5 -10 10 0 6 5 10 10 10 6 0 10 -4 10 -10z"/>
<path d="M3742 1510 c5 -18 48 -26 48 -10 0 7 -6 10 -14 7 -7 -3 -19 0 -26 6
-10 9 -11 9 -8 -3z"/>
<path d="M3570 2705 c0 -8 2 -15 4 -15 2 0 6 7 10 15 3 8 1 15 -4 15 -6 0 -10
-7 -10 -15z"/>
<path d="M3640 2689 c0 -11 5 -17 10 -14 6 3 10 13 10 21 0 8 -4 14 -10 14 -5
0 -10 -9 -10 -21z"/>
<path d="M2417 2613 c-7 -11 10 -40 18 -31 4 4 3 14 -3 24 -5 9 -12 12 -15 7z"/>
<path d="M2652 2540 c-31 -68 -23 -106 25 -126 41 -18 91 -10 100 14 4 10 13
21 20 25 20 12 -25 57 -58 57 -35 0 -57 20 -61 53 -3 26 -5 24 -26 -23z"/>
<path d="M2800 2525 c-7 -9 -11 -17 -9 -19 2 -1 38 -1 79 2 74 5 75 5 40 18
-48 17 -95 17 -110 -1z"/>
<path d="M3130 2490 c0 -5 5 -10 10 -10 6 0 10 5 10 10 0 6 -4 10 -10 10 -5 0
-10 -4 -10 -10z"/>
<path d="M4090 2290 c-9 -6 -10 -10 -3 -10 6 0 15 5 18 10 8 12 4 12 -15 0z"/>
<path d="M2463 2123 c9 -14 47 -24 47 -12 0 5 -4 9 -9 9 -5 0 -17 3 -27 7 -11
4 -15 3 -11 -4z"/>
<path d="M3364 2030 c-54 -50 -110 -93 -124 -96 -14 -3 -52 -15 -85 -25 -33
-11 -71 -18 -85 -15 -14 2 -28 5 -32 5 -4 1 -14 9 -24 18 -17 17 -17 16 -10
-11 7 -27 6 -28 -20 -22 -24 6 -26 5 -14 -8 7 -9 45 -37 84 -63 39 -25 88 -57
109 -71 34 -23 104 -53 162 -70 11 -3 23 -10 27 -16 5 -8 8 -7 8 2 0 6 9 12
20 12 11 0 20 -5 20 -11 0 -6 6 -9 14 -6 7 3 19 0 25 -6 8 -8 14 -8 23 1 6 6
10 13 7 15 -2 2 -47 14 -99 27 -52 13 -102 27 -110 31 -8 4 -24 11 -35 15 -17
7 -15 9 13 12 27 3 31 6 22 17 -13 16 3 55 23 55 30 1 57 39 61 87 3 26 5 51
5 56 1 4 28 37 61 72 51 55 71 85 57 85 -2 0 -48 -41 -103 -90z"/>
<path d="M4030 1990 c-13 -8 -13 -10 2 -10 9 0 20 5 23 10 8 13 -5 13 -25 0z"/>
<path d="M3662 1768 c-7 -7 -12 -18 -12 -25 0 -8 7 -6 20 7 11 11 20 22 20 25
0 9 -16 5 -28 -7z"/>
<path d="M3590 1740 c0 -5 5 -10 10 -10 6 0 10 5 10 10 0 6 -4 10 -10 10 -5 0
-10 -4 -10 -10z"/>
<path d="M3970 1686 c0 -9 5 -16 10 -16 6 0 10 4 10 9 0 6 -4 13 -10 16 -5 3
-10 -1 -10 -9z"/>
<path d="M3497 1639 c4 -12 11 -18 20 -15 7 3 16 -1 20 -9 4 -12 8 -13 20 -3
12 10 9 14 -19 29 -43 23 -47 23 -41 -2z"/>
<path d="M2387 1613 c-4 -3 -7 -19 -7 -35 0 -16 -6 -31 -15 -34 -8 -4 -15 -14
-15 -24 0 -10 -6 -33 -14 -51 -17 -40 -6 -71 22 -63 11 4 9 -1 -7 -14 -20 -16
-24 -28 -24 -66 1 -38 -2 -46 -17 -46 -16 0 -19 -8 -19 -65 0 -56 3 -65 21
-71 17 -5 18 -8 7 -16 -11 -7 -11 -11 -1 -15 6 -2 12 -18 12 -34 0 -19 5 -29
15 -29 32 0 13 -20 -24 -26 -34 -5 -39 -9 -37 -33 0 -14 5 -29 11 -33 7 -5 6
-11 -1 -15 -6 -5 -13 -18 -16 -30 -5 -19 -1 -22 34 -25 21 -2 42 -1 46 2 13 9
32 84 23 90 -8 5 -11 40 -4 40 2 0 19 -10 37 -22 33 -21 48 -65 19 -54 -7 3
-20 3 -29 -1 -13 -5 -13 -8 4 -27 11 -11 22 -33 26 -48 3 -16 11 -28 16 -28 6
0 10 -7 10 -15 0 -8 21 -26 48 -40 60 -31 79 -46 94 -76 8 -13 49 -77 92 -142
52 -79 87 -122 105 -128 14 -6 41 -22 60 -37 24 -18 36 -22 39 -13 2 7 12 0
23 -18 11 -18 27 -31 39 -31 11 0 20 -7 20 -15 0 -8 4 -15 9 -15 4 0 7 16 5
35 -1 19 -1 35 1 35 2 0 13 -16 24 -36 30 -51 36 -37 12 32 -21 64 -41 136
-40 144 1 3 -6 22 -15 44 -19 45 -19 46 -7 46 5 0 13 -9 16 -21 9 -27 17 -18
20 21 2 27 -1 32 -26 37 -16 3 -29 12 -29 20 0 8 -4 12 -9 9 -5 -3 -14 1 -21
9 -7 8 -21 15 -31 15 -23 0 -51 28 -43 42 4 6 2 8 -4 5 -17 -11 -42 3 -42 24
0 11 -5 16 -13 14 -7 -3 -18 8 -25 25 -10 22 -21 30 -38 30 -14 0 -22 4 -19
10 3 6 15 10 26 10 10 0 19 7 19 15 0 8 -9 15 -20 15 -12 0 -20 7 -20 16 0 11
5 14 18 10 16 -7 16 -6 0 10 -14 14 -20 15 -32 4 -16 -13 -20 -8 -17 23 1 9
-4 17 -12 17 -17 0 -30 27 -17 35 5 3 13 -3 19 -12 10 -17 10 -17 11 0 0 11 8
17 21 17 18 0 20 2 9 15 -7 9 -16 12 -19 7 -8 -11 -41 -12 -41 0 0 4 5 8 10 8
6 0 10 5 10 10 0 6 -4 10 -10 10 -5 0 -19 9 -30 20 l-20 20 21 0 c11 0 17 5
14 10 -3 6 -17 10 -31 10 -13 0 -24 5 -24 12 0 18 -50 78 -66 78 -7 0 -14 -4
-14 -10 0 -5 -5 -10 -11 -10 -6 0 -9 7 -5 15 6 18 -2 45 -15 45 -4 0 -6 -7 -3
-15 4 -8 1 -15 -5 -15 -6 0 -11 7 -11 15 0 7 -8 18 -17 24 -16 9 -17 11 -1 28
11 11 14 24 9 32 -7 10 -10 10 -13 1 -3 -10 -8 -10 -25 1 l-22 13 22 11 c15 7
22 20 22 40 0 25 -4 30 -28 33 -21 3 -27 8 -23 19 3 8 9 26 13 40 5 20 3 24
-8 18 -11 -6 -12 -5 -1 6 18 19 15 34 -5 18 -15 -13 -15 -12 -4 9 6 12 19 22
27 22 9 0 22 7 30 15 9 8 11 15 5 15 -5 0 -13 9 -16 20 -6 20 -25 26 -38 13z
m167 -444 c-8 -13 -21 -11 -27 5 -4 10 0 12 14 9 10 -3 16 -9 13 -14z m-80
-174 c-4 -9 0 -15 10 -15 9 0 16 -4 16 -10 0 -20 -27 -9 -38 15 -9 20 -9 25 3
25 9 0 12 -6 9 -15z m86 -46 c0 -6 -4 -7 -10 -4 -5 3 -10 11 -10 16 0 6 5 7
10 4 6 -3 10 -11 10 -16z m100 1 c0 -5 -5 -10 -11 -10 -5 0 -7 5 -4 10 3 6 8
10 11 10 2 0 4 -4 4 -10z m-206 -35 c-4 -9 0 -15 10 -15 16 0 21 -12 10 -23
-4 -3 -15 4 -24 16 -13 16 -15 24 -7 29 16 11 17 10 11 -7z m148 -7 c-7 -7
-12 -8 -12 -2 0 14 12 26 19 19 2 -3 -1 -11 -7 -17z m98 -9 c0 -5 -13 -9 -30
-9 -30 0 -41 15 -17 23 17 5 47 -3 47 -14z"/>
<path d="M3470 1501 c0 -5 5 -13 10 -16 6 -3 10 -2 10 4 0 5 -4 13 -10 16 -5
3 -10 2 -10 -4z"/>
<path d="M3440 1480 c0 -5 5 -10 10 -10 6 0 10 -9 10 -19 0 -23 11 -33 27 -23
7 5 3 16 -12 35 -25 29 -35 33 -35 17z"/>
<path d="M2590 1170 c0 -5 5 -10 11 -10 5 0 7 5 4 10 -3 6 -8 10 -11 10 -2 0
-4 -4 -4 -10z"/>
<path d="M3646 1063 c-4 -9 -2 -21 4 -27 7 -7 10 -2 10 17 0 31 -5 34 -14 10z"/>
<path d="M3541 1048 c0 -13 4 -32 9 -43 7 -15 9 -10 9 23 1 23 -3 42 -9 42 -5
0 -10 -10 -9 -22z"/>
<path d="M3585 1030 c3 -5 8 -10 11 -10 2 0 4 5 4 10 0 6 -5 10 -11 10 -5 0
-7 -4 -4 -10z"/>
<path d="M3496 1003 c9 -16 26 -34 36 -41 10 -7 18 -25 19 -40 l0 -27 10 25
c7 18 7 27 -3 35 -8 5 -24 25 -37 43 -27 39 -51 43 -25 5z"/>
<path d="M2757 929 c7 -7 15 -10 18 -7 3 3 -2 9 -12 12 -14 6 -15 5 -6 -5z"/>
<path d="M2385 870 c3 -5 10 -10 16 -10 5 0 9 5 9 10 0 6 -7 10 -16 10 -8 0
-12 -4 -9 -10z"/>
<path d="M2292 742 c-7 -5 -15 -32 -18 -60 -5 -43 -3 -53 11 -58 9 -4 20 -2
24 5 5 7 16 9 27 5 16 -6 16 -4 -3 13 -13 11 -20 23 -17 26 4 3 13 0 21 -8 17
-17 33 -19 33 -5 0 6 -7 10 -15 10 -8 0 -15 9 -15 20 0 22 -15 27 -24 8 -2 -7
-4 -2 -3 12 1 14 7 28 12 32 14 10 -17 10 -33 0z"/>
<path d="M3545 630 c3 -5 8 -10 11 -10 2 0 4 5 4 10 0 6 -5 10 -11 10 -5 0 -7
-4 -4 -10z"/>
<path d="M3580 634 c0 -10 42 -65 46 -61 9 9 -19 67 -32 67 -8 0 -14 -3 -14
-6z"/>
<path d="M3652 583 c2 -10 11 -19 21 -21 21 -4 13 24 -9 32 -11 4 -14 1 -12
-11z"/>
<path d="M3011 551 c-18 -12 -6 -45 14 -37 8 3 15 0 15 -6 0 -6 3 -9 6 -6 3 4
0 18 -8 32 -9 18 -17 23 -27 17z"/>
<path d="M3060 549 c0 -5 5 -7 10 -4 6 3 10 8 10 11 0 2 -4 4 -10 4 -5 0 -10
-5 -10 -11z"/>
<path d="M3285 520 c4 -6 11 -8 16 -5 14 9 11 15 -7 15 -8 0 -12 -5 -9 -10z"/>
<path d="M2298 502 c-10 -2 -19 -11 -19 -20 -7 -93 -5 -122 8 -126 9 -4 11 -1
7 6 -5 8 -2 9 10 5 10 -4 23 -7 29 -7 7 -1 -1 -8 -16 -16 -16 -9 -27 -18 -24
-21 3 -2 14 0 24 5 23 12 148 32 202 32 23 0 41 4 41 9 0 5 -33 7 -72 6 -51
-3 -66 -1 -50 5 12 5 22 11 22 14 0 7 -58 1 -66 -7 -12 -11 -21 -8 -23 8 -4
39 -4 51 2 70 6 16 1 22 -26 30 -17 6 -40 9 -49 7z"/>
<path d="M3015 490 c3 -5 8 -10 11 -10 2 0 4 5 4 10 0 6 -5 10 -11 10 -5 0 -7
-4 -4 -10z"/>
<path d="M2598 363 c7 -3 16 -2 19 1 4 3 -2 6 -13 5 -11 0 -14 -3 -6 -6z"/>
</g>
</svg>
